<mxfile host="app.diagrams.net" modified="2020-11-18T08:25:52.966Z" agent="5.0 (Windows NT 10.0; Win64; x64) AppleWebKit/537.36 (KHTML, like Gecko) Chrome/86.0.4240.111 Safari/537.36" etag="KshV5nH-5W1MTppJjPjr" version="13.8.8" type="github">
  <diagram id="WwB5_izuDvsGerU-TK_d" name="Page-1">
    <mxGraphModel dx="1386" dy="725" grid="1" gridSize="10" guides="1" tooltips="1" connect="1" arrows="1" fold="1" page="1" pageScale="1" pageWidth="827" pageHeight="1169" math="0" shadow="0">
      <root>
        <mxCell id="0" />
        <mxCell id="1" parent="0" />
        <mxCell id="3YQ9nYKxf2kHEQzLxWNd-1" value="" style="shape=table;html=1;whiteSpace=wrap;startSize=0;container=1;collapsible=0;childLayout=tableLayout;gradientDirection=east;swimlaneFillColor=none;sketch=0;rounded=0;shadow=0;direction=north;flipH=1;flipV=0;perimeter=rectanglePerimeter;resizeWidth=1;resizeHeight=1;fillColor=#dae8fc;strokeColor=#6c8ebf;strokeWidth=3;perimeterSpacing=1;dashed=1;" parent="1" vertex="1">
          <mxGeometry x="110" y="220" width="300" height="300" as="geometry" />
        </mxCell>
        <mxCell id="3YQ9nYKxf2kHEQzLxWNd-43" style="shape=partialRectangle;html=1;whiteSpace=wrap;collapsible=0;dropTarget=0;pointerEvents=0;fillColor=none;top=0;left=0;bottom=0;right=0;points=[[0,0.5],[1,0.5]];portConstraint=eastwest;" parent="3YQ9nYKxf2kHEQzLxWNd-1" vertex="1">
          <mxGeometry width="300" height="60" as="geometry" />
        </mxCell>
        <mxCell id="3YQ9nYKxf2kHEQzLxWNd-44" style="shape=partialRectangle;html=1;whiteSpace=wrap;connectable=0;top=1;left=1;bottom=0;right=0;overflow=hidden;dashed=1;fillColor=#e1d5e7;strokeColor=#9673a6;" parent="3YQ9nYKxf2kHEQzLxWNd-43" vertex="1">
          <mxGeometry width="60" height="60" as="geometry" />
        </mxCell>
        <mxCell id="3YQ9nYKxf2kHEQzLxWNd-45" style="shape=partialRectangle;html=1;whiteSpace=wrap;connectable=0;top=1;left=1;bottom=0;right=0;overflow=hidden;dashed=1;fillColor=#e1d5e7;strokeColor=#9673a6;" parent="3YQ9nYKxf2kHEQzLxWNd-43" vertex="1">
          <mxGeometry x="60" width="60" height="60" as="geometry" />
        </mxCell>
        <mxCell id="3YQ9nYKxf2kHEQzLxWNd-46" style="shape=partialRectangle;html=1;whiteSpace=wrap;connectable=0;top=1;left=1;bottom=0;right=0;overflow=hidden;dashed=1;" parent="3YQ9nYKxf2kHEQzLxWNd-43" vertex="1">
          <mxGeometry x="120" width="60" height="60" as="geometry" />
        </mxCell>
        <mxCell id="3YQ9nYKxf2kHEQzLxWNd-47" style="shape=partialRectangle;html=1;whiteSpace=wrap;connectable=0;top=1;left=1;bottom=0;right=1;overflow=hidden;dashed=1;" parent="3YQ9nYKxf2kHEQzLxWNd-43" vertex="1">
          <mxGeometry x="180" width="60" height="60" as="geometry" />
        </mxCell>
        <mxCell id="3YQ9nYKxf2kHEQzLxWNd-53" style="shape=partialRectangle;html=1;whiteSpace=wrap;connectable=0;top=1;left=0;bottom=0;right=1;overflow=hidden;perimeterSpacing=1;dashed=1;" parent="3YQ9nYKxf2kHEQzLxWNd-43" vertex="1">
          <mxGeometry x="240" width="60" height="60" as="geometry" />
        </mxCell>
        <mxCell id="3YQ9nYKxf2kHEQzLxWNd-2" value="" style="shape=partialRectangle;html=1;whiteSpace=wrap;collapsible=0;dropTarget=0;pointerEvents=0;fillColor=none;top=0;left=0;bottom=0;right=0;points=[[0,0.5],[1,0.5]];portConstraint=eastwest;" parent="3YQ9nYKxf2kHEQzLxWNd-1" vertex="1">
          <mxGeometry y="60" width="300" height="60" as="geometry" />
        </mxCell>
        <mxCell id="3YQ9nYKxf2kHEQzLxWNd-40" style="shape=partialRectangle;html=1;whiteSpace=wrap;connectable=0;top=1;left=1;bottom=1;right=1;overflow=hidden;dashed=1;fillColor=#e1d5e7;strokeColor=#9673a6;" parent="3YQ9nYKxf2kHEQzLxWNd-2" vertex="1">
          <mxGeometry width="60" height="60" as="geometry" />
        </mxCell>
        <mxCell id="3YQ9nYKxf2kHEQzLxWNd-3" value="" style="shape=partialRectangle;html=1;whiteSpace=wrap;connectable=0;fillColor=#e1d5e7;top=1;left=1;bottom=1;right=1;overflow=hidden;strokeColor=#9673a6;" parent="3YQ9nYKxf2kHEQzLxWNd-2" vertex="1">
          <mxGeometry x="60" width="60" height="60" as="geometry" />
        </mxCell>
        <mxCell id="3YQ9nYKxf2kHEQzLxWNd-4" value="" style="shape=partialRectangle;html=1;whiteSpace=wrap;connectable=0;fillColor=none;top=1;left=1;bottom=1;right=1;overflow=hidden;" parent="3YQ9nYKxf2kHEQzLxWNd-2" vertex="1">
          <mxGeometry x="120" width="60" height="60" as="geometry" />
        </mxCell>
        <mxCell id="3YQ9nYKxf2kHEQzLxWNd-5" value="" style="shape=partialRectangle;html=1;whiteSpace=wrap;connectable=0;fillColor=none;top=1;left=1;bottom=1;right=1;overflow=hidden;" parent="3YQ9nYKxf2kHEQzLxWNd-2" vertex="1">
          <mxGeometry x="180" width="60" height="60" as="geometry" />
        </mxCell>
        <mxCell id="3YQ9nYKxf2kHEQzLxWNd-54" style="shape=partialRectangle;html=1;whiteSpace=wrap;connectable=0;top=1;left=0;bottom=0;right=1;overflow=hidden;dashed=1;" parent="3YQ9nYKxf2kHEQzLxWNd-2" vertex="1">
          <mxGeometry x="240" width="60" height="60" as="geometry" />
        </mxCell>
        <mxCell id="3YQ9nYKxf2kHEQzLxWNd-6" value="" style="shape=partialRectangle;html=1;whiteSpace=wrap;collapsible=0;dropTarget=0;pointerEvents=0;fillColor=none;top=0;left=0;bottom=0;right=0;points=[[0,0.5],[1,0.5]];portConstraint=eastwest;" parent="3YQ9nYKxf2kHEQzLxWNd-1" vertex="1">
          <mxGeometry y="120" width="300" height="60" as="geometry" />
        </mxCell>
        <mxCell id="3YQ9nYKxf2kHEQzLxWNd-41" style="shape=partialRectangle;html=1;whiteSpace=wrap;connectable=0;top=0;left=1;bottom=0;right=1;overflow=hidden;" parent="3YQ9nYKxf2kHEQzLxWNd-6" vertex="1">
          <mxGeometry width="60" height="60" as="geometry" />
        </mxCell>
        <mxCell id="3YQ9nYKxf2kHEQzLxWNd-7" value="" style="shape=partialRectangle;html=1;whiteSpace=wrap;connectable=0;fillColor=none;top=1;left=1;bottom=1;right=1;overflow=hidden;" parent="3YQ9nYKxf2kHEQzLxWNd-6" vertex="1">
          <mxGeometry x="60" width="60" height="60" as="geometry" />
        </mxCell>
        <mxCell id="3YQ9nYKxf2kHEQzLxWNd-8" value="" style="shape=partialRectangle;html=1;whiteSpace=wrap;connectable=0;fillColor=none;top=0;left=0;bottom=0;right=0;overflow=hidden;" parent="3YQ9nYKxf2kHEQzLxWNd-6" vertex="1">
          <mxGeometry x="120" width="60" height="60" as="geometry" />
        </mxCell>
        <mxCell id="3YQ9nYKxf2kHEQzLxWNd-9" value="" style="shape=partialRectangle;html=1;whiteSpace=wrap;connectable=0;fillColor=none;top=1;left=1;bottom=1;right=1;overflow=hidden;" parent="3YQ9nYKxf2kHEQzLxWNd-6" vertex="1">
          <mxGeometry x="180" width="60" height="60" as="geometry" />
        </mxCell>
        <mxCell id="3YQ9nYKxf2kHEQzLxWNd-55" style="shape=partialRectangle;html=1;whiteSpace=wrap;connectable=0;top=1;left=0;bottom=1;right=1;overflow=hidden;dashed=1;" parent="3YQ9nYKxf2kHEQzLxWNd-6" vertex="1">
          <mxGeometry x="240" width="60" height="60" as="geometry" />
        </mxCell>
        <mxCell id="3YQ9nYKxf2kHEQzLxWNd-10" value="" style="shape=partialRectangle;html=1;whiteSpace=wrap;collapsible=0;dropTarget=0;pointerEvents=0;fillColor=none;top=0;left=0;bottom=0;right=0;points=[[0,0.5],[1,0.5]];portConstraint=eastwest;" parent="3YQ9nYKxf2kHEQzLxWNd-1" vertex="1">
          <mxGeometry y="180" width="300" height="60" as="geometry" />
        </mxCell>
        <mxCell id="3YQ9nYKxf2kHEQzLxWNd-42" style="shape=partialRectangle;html=1;whiteSpace=wrap;connectable=0;top=1;left=1;bottom=0;right=1;overflow=hidden;dashed=1;" parent="3YQ9nYKxf2kHEQzLxWNd-10" vertex="1">
          <mxGeometry width="60" height="60" as="geometry" />
        </mxCell>
        <mxCell id="3YQ9nYKxf2kHEQzLxWNd-11" value="" style="shape=partialRectangle;html=1;whiteSpace=wrap;connectable=0;fillColor=none;top=1;left=1;bottom=1;right=1;overflow=hidden;" parent="3YQ9nYKxf2kHEQzLxWNd-10" vertex="1">
          <mxGeometry x="60" width="60" height="60" as="geometry" />
        </mxCell>
        <mxCell id="3YQ9nYKxf2kHEQzLxWNd-12" value="" style="shape=partialRectangle;html=1;whiteSpace=wrap;connectable=0;fillColor=none;top=1;left=1;bottom=1;right=1;overflow=hidden;" parent="3YQ9nYKxf2kHEQzLxWNd-10" vertex="1">
          <mxGeometry x="120" width="60" height="60" as="geometry" />
        </mxCell>
        <mxCell id="3YQ9nYKxf2kHEQzLxWNd-13" value="" style="shape=partialRectangle;html=1;whiteSpace=wrap;connectable=0;fillColor=none;top=1;left=1;bottom=1;right=1;overflow=hidden;" parent="3YQ9nYKxf2kHEQzLxWNd-10" vertex="1">
          <mxGeometry x="180" width="60" height="60" as="geometry" />
        </mxCell>
        <mxCell id="3YQ9nYKxf2kHEQzLxWNd-56" style="shape=partialRectangle;html=1;whiteSpace=wrap;connectable=0;top=0;left=0;bottom=0;right=1;overflow=hidden;dashed=1;" parent="3YQ9nYKxf2kHEQzLxWNd-10" vertex="1">
          <mxGeometry x="240" width="60" height="60" as="geometry" />
        </mxCell>
        <mxCell id="3YQ9nYKxf2kHEQzLxWNd-48" style="shape=partialRectangle;html=1;whiteSpace=wrap;collapsible=0;dropTarget=0;pointerEvents=0;top=0;left=0;bottom=0;right=0;points=[[0,0.5],[1,0.5]];portConstraint=eastwest;dashed=1;sketch=0;fillColor=none;" parent="3YQ9nYKxf2kHEQzLxWNd-1" vertex="1">
          <mxGeometry y="240" width="300" height="60" as="geometry" />
        </mxCell>
        <mxCell id="3YQ9nYKxf2kHEQzLxWNd-49" style="shape=partialRectangle;html=1;whiteSpace=wrap;connectable=0;top=1;left=1;bottom=1;right=1;overflow=hidden;dashed=1;" parent="3YQ9nYKxf2kHEQzLxWNd-48" vertex="1">
          <mxGeometry width="60" height="60" as="geometry" />
        </mxCell>
        <mxCell id="3YQ9nYKxf2kHEQzLxWNd-50" style="shape=partialRectangle;html=1;whiteSpace=wrap;connectable=0;top=1;left=0;bottom=1;right=1;overflow=hidden;dashed=1;" parent="3YQ9nYKxf2kHEQzLxWNd-48" vertex="1">
          <mxGeometry x="60" width="60" height="60" as="geometry" />
        </mxCell>
        <mxCell id="3YQ9nYKxf2kHEQzLxWNd-51" style="shape=partialRectangle;html=1;whiteSpace=wrap;connectable=0;top=1;left=0;bottom=1;right=1;overflow=hidden;dashed=1;" parent="3YQ9nYKxf2kHEQzLxWNd-48" vertex="1">
          <mxGeometry x="120" width="60" height="60" as="geometry" />
        </mxCell>
        <mxCell id="3YQ9nYKxf2kHEQzLxWNd-52" style="shape=partialRectangle;html=1;whiteSpace=wrap;connectable=0;top=1;left=0;bottom=1;right=1;overflow=hidden;dashed=1;" parent="3YQ9nYKxf2kHEQzLxWNd-48" vertex="1">
          <mxGeometry x="180" width="60" height="60" as="geometry" />
        </mxCell>
        <mxCell id="3YQ9nYKxf2kHEQzLxWNd-57" style="shape=partialRectangle;html=1;whiteSpace=wrap;connectable=0;top=1;left=0;bottom=1;right=1;overflow=hidden;dashed=1;" parent="3YQ9nYKxf2kHEQzLxWNd-48" vertex="1">
          <mxGeometry x="240" width="60" height="60" as="geometry" />
        </mxCell>
        <mxCell id="3YQ9nYKxf2kHEQzLxWNd-14" value="" style="shape=table;html=1;whiteSpace=wrap;startSize=0;container=1;collapsible=0;childLayout=tableLayout;rounded=0;shadow=0;sketch=0;fillColor=#d5e8d4;strokeColor=#82b366;" parent="1" vertex="1">
          <mxGeometry x="530" y="280" width="180" height="180" as="geometry" />
        </mxCell>
        <mxCell id="3YQ9nYKxf2kHEQzLxWNd-15" value="" style="shape=partialRectangle;html=1;whiteSpace=wrap;collapsible=0;dropTarget=0;pointerEvents=0;fillColor=none;top=0;left=0;bottom=0;right=0;points=[[0,0.5],[1,0.5]];portConstraint=eastwest;" parent="3YQ9nYKxf2kHEQzLxWNd-14" vertex="1">
          <mxGeometry width="180" height="60" as="geometry" />
        </mxCell>
        <mxCell id="3YQ9nYKxf2kHEQzLxWNd-16" value="" style="shape=partialRectangle;html=1;whiteSpace=wrap;connectable=0;fillColor=#ffe6cc;top=1;left=1;bottom=1;right=1;overflow=hidden;noLabel=1;" parent="3YQ9nYKxf2kHEQzLxWNd-15" vertex="1">
          <mxGeometry width="60" height="60" as="geometry" />
        </mxCell>
        <mxCell id="3YQ9nYKxf2kHEQzLxWNd-17" value="" style="shape=partialRectangle;html=1;whiteSpace=wrap;connectable=0;fillColor=none;top=1;left=1;bottom=1;right=1;overflow=hidden;" parent="3YQ9nYKxf2kHEQzLxWNd-15" vertex="1">
          <mxGeometry x="60" width="60" height="60" as="geometry" />
        </mxCell>
        <mxCell id="3YQ9nYKxf2kHEQzLxWNd-18" value="" style="shape=partialRectangle;html=1;whiteSpace=wrap;connectable=0;fillColor=none;top=1;left=1;bottom=1;right=1;overflow=hidden;" parent="3YQ9nYKxf2kHEQzLxWNd-15" vertex="1">
          <mxGeometry x="120" width="60" height="60" as="geometry" />
        </mxCell>
        <mxCell id="3YQ9nYKxf2kHEQzLxWNd-19" value="" style="shape=partialRectangle;html=1;whiteSpace=wrap;collapsible=0;dropTarget=0;pointerEvents=0;fillColor=none;top=0;left=0;bottom=0;right=0;points=[[0,0.5],[1,0.5]];portConstraint=eastwest;" parent="3YQ9nYKxf2kHEQzLxWNd-14" vertex="1">
          <mxGeometry y="60" width="180" height="60" as="geometry" />
        </mxCell>
        <mxCell id="3YQ9nYKxf2kHEQzLxWNd-20" value="" style="shape=partialRectangle;html=1;whiteSpace=wrap;connectable=0;fillColor=none;top=1;left=1;bottom=1;right=1;overflow=hidden;" parent="3YQ9nYKxf2kHEQzLxWNd-19" vertex="1">
          <mxGeometry width="60" height="60" as="geometry" />
        </mxCell>
        <mxCell id="3YQ9nYKxf2kHEQzLxWNd-21" value="" style="shape=partialRectangle;html=1;whiteSpace=wrap;connectable=0;fillColor=none;top=1;left=1;bottom=1;right=1;overflow=hidden;" parent="3YQ9nYKxf2kHEQzLxWNd-19" vertex="1">
          <mxGeometry x="60" width="60" height="60" as="geometry" />
        </mxCell>
        <mxCell id="3YQ9nYKxf2kHEQzLxWNd-22" value="" style="shape=partialRectangle;html=1;whiteSpace=wrap;connectable=0;fillColor=none;top=1;left=1;bottom=1;right=1;overflow=hidden;" parent="3YQ9nYKxf2kHEQzLxWNd-19" vertex="1">
          <mxGeometry x="120" width="60" height="60" as="geometry" />
        </mxCell>
        <mxCell id="3YQ9nYKxf2kHEQzLxWNd-23" value="" style="shape=partialRectangle;html=1;whiteSpace=wrap;collapsible=0;dropTarget=0;pointerEvents=0;fillColor=none;top=0;left=0;bottom=0;right=0;points=[[0,0.5],[1,0.5]];portConstraint=eastwest;" parent="3YQ9nYKxf2kHEQzLxWNd-14" vertex="1">
          <mxGeometry y="120" width="180" height="60" as="geometry" />
        </mxCell>
        <mxCell id="3YQ9nYKxf2kHEQzLxWNd-24" value="" style="shape=partialRectangle;html=1;whiteSpace=wrap;connectable=0;fillColor=none;top=1;left=1;bottom=1;right=1;overflow=hidden;" parent="3YQ9nYKxf2kHEQzLxWNd-23" vertex="1">
          <mxGeometry width="60" height="60" as="geometry" />
        </mxCell>
        <mxCell id="3YQ9nYKxf2kHEQzLxWNd-25" value="" style="shape=partialRectangle;html=1;whiteSpace=wrap;connectable=0;fillColor=none;top=1;left=1;bottom=1;right=1;overflow=hidden;" parent="3YQ9nYKxf2kHEQzLxWNd-23" vertex="1">
          <mxGeometry x="60" width="60" height="60" as="geometry" />
        </mxCell>
        <mxCell id="3YQ9nYKxf2kHEQzLxWNd-26" value="" style="shape=partialRectangle;html=1;whiteSpace=wrap;connectable=0;fillColor=none;top=1;left=1;bottom=1;right=1;overflow=hidden;" parent="3YQ9nYKxf2kHEQzLxWNd-23" vertex="1">
          <mxGeometry x="120" width="60" height="60" as="geometry" />
        </mxCell>
        <mxCell id="lb5qYiX0bsLNriZ90-VM-7" value="" style="rounded=0;arcSize=10;dashed=1;fillColor=none;gradientColor=none;strokeWidth=3;shadow=0;glass=1;sketch=0;strokeColor=#FF3333;" vertex="1" parent="1">
          <mxGeometry x="90" y="210" width="160" height="140" as="geometry" />
        </mxCell>
        <mxCell id="lb5qYiX0bsLNriZ90-VM-17" value="" style="startArrow=oval;startFill=0;startSize=7;endArrow=block;endFill=0;endSize=10;dashed=1;html=1;fillColor=#d80073;strokeColor=#FF0000;" edge="1" parent="1" target="3YQ9nYKxf2kHEQzLxWNd-15">
          <mxGeometry width="100" relative="1" as="geometry">
            <mxPoint x="250" y="260" as="sourcePoint" />
            <mxPoint x="350" y="260" as="targetPoint" />
            <Array as="points">
              <mxPoint x="520" y="298" />
            </Array>
          </mxGeometry>
        </mxCell>
      </root>
    </mxGraphModel>
  </diagram>
</mxfile>
